<?xml version="1.0" encoding="UTF-8"?>
<svg version="1.1" xmlns="http://www.w3.org/2000/svg" width="734" height="222">
<path d="M0 0 C242.22 0 484.44 0 734 0 C734 73.26 734 146.52 734 222 C491.78 222 249.56 222 0 222 C0 148.74 0 75.48 0 0 Z " fill="#FDFDFE" transform="translate(0,0)"/>
<path d="M0 0 C1.2375 0.350625 2.475 0.70125 3.75 1.0625 C7 2 7 2 9 4 C9.66 2.02 10.32 0.04 11 -2 C16.94 -2 22.88 -2 29 -2 C29.06782537 10.13517618 29.12284489 22.27022608 29.15543652 34.40554905 C29.17108026 40.04070145 29.1922952 45.67571723 29.22631836 51.31079102 C29.2589575 56.75079119 29.27686273 62.1906601 29.28463173 67.63075066 C29.29016703 69.70434574 29.30097613 71.77793378 29.31719017 73.85147285 C29.33902474 76.75994415 29.34196437 79.66787571 29.34057617 82.57641602 C29.35675491 83.85711975 29.35675491 83.85711975 29.3732605 85.16369629 C29.34565122 90.52323347 28.43248552 94.21136025 26 99 C25.34 99 24.68 99 24 99 C23.896875 99.556875 23.79375 100.11375 23.6875 100.6875 C22.84468534 103.52242204 21.74441179 105.60950977 20 108 C18.67405895 108.36162029 17.34061543 108.69728039 16 109 C15.56494141 109.93392578 15.56494141 109.93392578 15.12109375 110.88671875 C13.77118192 113.43132607 12.69607038 114.0275288 10.125 115.25 C9.10792969 115.75273437 9.10792969 115.75273437 8.0703125 116.265625 C6 117 6 117 2 117 C2 117.66 2 118.32 2 119 C-31.74241073 119.0228654 -65.48481954 119.04049773 -99.2272363 119.05106533 C-103.20658528 119.05231611 -107.18593424 119.05361042 -111.1652832 119.05493164 C-111.95753381 119.05519395 -112.74978441 119.05545626 -113.56604261 119.05572652 C-126.41112421 119.06008341 -139.25620137 119.06797106 -152.10128032 119.0771528 C-165.2715794 119.08648882 -178.44187614 119.0920555 -191.61217839 119.09408849 C-199.74558286 119.09546383 -207.87897476 119.09981499 -216.01237536 119.10791647 C-222.2384226 119.11380394 -228.46446015 119.11445909 -234.6905098 119.11310768 C-237.2524441 119.11338422 -239.81437886 119.11539207 -242.37631035 119.11920547 C-245.8573318 119.12413549 -249.33829812 119.12300085 -252.81932068 119.12025452 C-253.84750914 119.12316736 -254.87569759 119.1260802 -255.93504328 119.12908131 C-256.86013415 119.12709026 -257.78522503 119.12509921 -258.73834896 119.12304783 C-259.54297634 119.12342755 -260.34760372 119.12380727 -261.17661375 119.1241985 C-263 119 -263 119 -264 118 C-264.07319621 115.30345146 -264.09242537 112.63308542 -264.0625 109.9375 C-264.05798828 109.17888672 -264.05347656 108.42027344 -264.04882812 107.63867188 C-264.0370068 105.75908129 -264.01907078 103.87953101 -264 102 C-263.16435434 101.99910437 -263.16435434 101.99910437 -262.31182694 101.99819064 C-229.31053322 101.96231459 -196.30934816 101.90570328 -163.30814196 101.82207905 C-159.34768095 101.81206132 -155.38721952 101.80221723 -151.42675781 101.79248047 C-150.63828475 101.7905391 -149.8498117 101.78859772 -149.03744552 101.78659752 C-136.26229571 101.75555697 -123.48716389 101.73859115 -110.71198347 101.72680578 C-97.60828898 101.71440484 -84.50468899 101.68692745 -71.40105414 101.64538693 C-63.3121536 101.62022111 -55.22340973 101.60688496 -47.13446948 101.60857043 C-40.93701538 101.60860364 -34.73979499 101.58768427 -28.5424118 101.55883217 C-25.99626529 101.55028735 -23.45008539 101.54861402 -20.90393066 101.55419731 C-17.43675917 101.56078966 -13.9705532 101.54303 -10.503479 101.51898193 C-9.48792002 101.52674235 -8.47236104 101.53450277 -7.42602754 101.54249835 C-2.01630583 101.58559609 -2.01630583 101.58559609 2.53146744 98.96756363 C3.01608318 98.31826763 3.50069893 97.66897163 4 97 C4.66 97 5.32 97 6 97 C6.66 95.68 7.32 94.36 8 93 C8.66 93 9.32 93 10 93 C10.33 84.75 10.66 76.5 11 68 C8.03 70.31 5.06 72.62 2 75 C-2.5625 75.9375 -2.5625 75.9375 -6 76 C-6 76.66 -6 77.32 -6 78 C-17.73804277 78.80438364 -26.11917576 77.89843134 -35.89453125 70.58203125 C-39.97552046 66.89364353 -42.83699029 62.0246907 -45 57 C-45 56.01 -45 55.02 -45 54 C-45.66 54 -46.32 54 -47 54 C-48.39668171 49.14310232 -48.22346197 44.33150416 -48.25 39.3125 C-48.2809375 37.87874023 -48.2809375 37.87874023 -48.3125 36.41601562 C-48.34715924 30.06037662 -47.42376669 24.88119858 -45 19 C-44.34 19 -43.68 19 -43 19 C-42.67 16.69 -42.34 14.38 -42 12 C-41.34 12 -40.68 12 -40 12 C-39.34 10.35 -38.68 8.7 -38 7 C-37.34 7 -36.68 7 -36 7 C-35.67 6.01 -35.34 5.02 -35 4 C-28.94285714 0 -28.94285714 0 -24 0 C-24 -0.66 -24 -1.32 -24 -2 C-15.89542444 -3.87144762 -7.24634931 -4.48583529 0 0 Z " fill="#3678C7" transform="translate(549,67)"/>
<path d="M0 0 C10.80458457 -0.02255075 21.60915363 -0.04091493 32.41375637 -0.05181217 C37.4302247 -0.05704107 42.44667615 -0.06413883 47.46313477 -0.07543945 C52.30009694 -0.0862681 57.13704284 -0.09227679 61.97401619 -0.09487724 C63.82368285 -0.09673153 65.67334857 -0.10035222 67.52300835 -0.10573006 C70.10447014 -0.1129402 72.68586382 -0.11399095 75.26733398 -0.11352539 C76.03985001 -0.11712067 76.81236603 -0.12071594 77.60829163 -0.12442017 C82.88594784 -0.11405216 82.88594784 -0.11405216 84 1 C84.09409479 3.02494231 84.11743122 5.0531987 84.11352539 7.08032227 C84.11341209 9.03223228 84.11341209 9.03223228 84.11329651 11.02357483 C84.10818909 12.45451902 84.10297308 13.88546282 84.09765625 15.31640625 C84.09579203 16.7722926 84.09436815 18.22817957 84.09336853 19.68406677 C84.08954365 23.52279379 84.07971364 27.36148319 84.06866455 31.20019531 C84.05844978 35.11457816 84.05387077 39.02896706 84.04882812 42.94335938 C84.03809133 50.62892541 84.02049479 58.31445265 84 66 C75.09 66 66.18 66 57 66 C61.24111351 74.32504941 61.24111351 74.32504941 64.8125 78.3125 C67 81 67 81 67 85 C67.8971875 85.4021875 67.8971875 85.4021875 68.8125 85.8125 C71.01819033 87.00987475 72.43583187 88.04478984 74 90 C74 90.99 74 91.98 74 93 C74.66 93 75.32 93 76 93 C78.03435531 96.72965139 79 98.66905042 79 103 C79.60328125 103.06058594 80.2065625 103.12117188 80.828125 103.18359375 C83.94689261 104.35593625 84.39414589 106.08715349 85.75 109.0625 C86.17796875 109.98160156 86.6059375 110.90070313 87.046875 111.84765625 C87.36140625 112.55792969 87.6759375 113.26820313 88 114 C84.10494053 114.20373055 80.21125089 114.32777065 76.3125 114.4375 C75.20970703 114.49615234 74.10691406 114.55480469 72.97070312 114.61523438 C64.99591377 114.78388551 64.99591377 114.78388551 62.11474609 112.51611328 C59.89041901 109.53386734 59 107.76678196 59 104 C58.01 103.67 57.02 103.34 56 103 C54.31640625 100.453125 54.31640625 100.453125 52.5625 97.25 C50.31467826 93.16670861 47.95145962 89.60331573 45 86 C42.75723923 82.47461461 40.80775753 78.76616152 39 75 C38.34 75 37.68 75 37 75 C36.01 72.69 35.02 70.38 34 68 C29.05 67.67 24.1 67.34 19 67 C19.00785522 69.12779907 19.00785522 69.12779907 19.01586914 71.29858398 C19.03391309 76.54092787 19.04542978 81.783269 19.05493164 87.02563477 C19.05997325 89.29842591 19.06680637 91.5712138 19.07543945 93.84399414 C19.08751261 97.10303551 19.09322987 100.36203417 19.09765625 103.62109375 C19.10281754 104.64400009 19.10797882 105.66690643 19.11329651 106.72080994 C19.11340981 108.13215965 19.11340981 108.13215965 19.11352539 109.57202148 C19.115746 110.40475082 19.11796661 111.23748016 19.12025452 112.09544373 C19 114 19 114 18 115 C12.06 115 6.12 115 0 115 C0 92.56 0 70.12 0 47 C21.45 47 42.9 47 65 47 C65 38.09 65 29.18 65 20 C43.55 20 22.1 20 0 20 C0 13.4 0 6.8 0 0 Z " fill="#3577C7" transform="translate(19,28)"/>
<path d="M0 0 C0.73734375 0.03222656 1.4746875 0.06445312 2.234375 0.09765625 C6.64243147 0.47799741 9.63082112 2.20604678 13 5 C13 5.99 13 6.98 13 8 C15.475 8.99 15.475 8.99 18 10 C18 7.03 18 4.06 18 1 C23.94 1 29.88 1 36 1 C36 26.74 36 52.48 36 79 C30.06 79 24.12 79 18 79 C17.505 75.535 17.505 75.535 17 72 C15.02 72.495 15.02 72.495 13 73 C13 73.66 13 74.32 13 75 C4.3368026 80.3311984 -2.83375458 82.41423254 -13 81 C-16.81745326 79.95277367 -20.40156463 78.64499902 -24 77 C-24 76.34 -24 75.68 -24 75 C-24.85851562 74.90332031 -24.85851562 74.90332031 -25.734375 74.8046875 C-28.9277195 73.67049963 -30.17829086 71.7721839 -32.25 69.125 C-32.95640625 68.24070312 -33.6628125 67.35640625 -34.390625 66.4453125 C-36 64 -36 64 -36 61 C-36.66 61 -37.32 61 -38 61 C-42.64598383 47.91242948 -44.73143917 34.13454811 -39 21 C-38.34 21 -37.68 21 -37 21 C-36.90332031 20.25878906 -36.80664062 19.51757812 -36.70703125 18.75390625 C-35.90624039 15.63480371 -34.86059322 14.27811218 -32.6875 11.9375 C-32.09324219 11.28652344 -31.49898438 10.63554688 -30.88671875 9.96484375 C-29.95279297 8.99224609 -29.95279297 8.99224609 -29 8 C-28.36449219 7.30519531 -27.72898437 6.61039062 -27.07421875 5.89453125 C-19.67491991 -0.86377372 -9.40653764 -0.56763589 0 0 Z " fill="#397AC8" transform="translate(366,64)"/>
<path d="M0 0 C0.78487793 -0.00064453 1.56975586 -0.00128906 2.37841797 -0.00195312 C5.95487744 0.03189592 9.1841229 0.22583864 12.625 1.1875 C12.625 1.8475 12.625 2.5075 12.625 3.1875 C13.285 3.22875 13.945 3.27 14.625 3.3125 C19.02818354 4.59676187 22.29790004 7.06226903 25.625 10.1875 C27.125 13.0625 27.125 13.0625 27.625 15.1875 C28.285 15.1875 28.945 15.1875 29.625 15.1875 C29.625 16.1775 29.625 17.1675 29.625 18.1875 C30.285 18.1875 30.945 18.1875 31.625 18.1875 C34.57918442 27.63033948 34.625 34.85906405 34.625 45.1875 C16.805 45.1875 -1.015 45.1875 -19.375 45.1875 C-18.385 50.6325 -18.385 50.6325 -17.375 56.1875 C-15.89 56.6825 -15.89 56.6825 -14.375 57.1875 C-14.375 58.1775 -14.375 59.1675 -14.375 60.1875 C-5.77990715 63.93808597 2.43121145 63.47249689 11.625 63.1875 C11.76421875 62.5790625 11.9034375 61.970625 12.046875 61.34375 C13.4347032 56.16752589 16.38230051 53.28352395 20.625 50.1875 C24.4160119 51.63700455 28.0124638 53.33922566 31.625 55.1875 C31.625 55.8475 31.625 56.5075 31.625 57.1875 C32.615 57.1875 33.605 57.1875 34.625 57.1875 C34.16861983 62.01459798 32.12714468 64.31981207 28.875 67.8125 C28.01390625 68.75351563 27.1528125 69.69453125 26.265625 70.6640625 C22.88714302 73.89261185 20.39608992 76.1875 15.625 76.1875 C15.625 76.8475 15.625 77.5075 15.625 78.1875 C6.08419121 81.95892559 -4.370935 82.55036488 -14.375 80.1875 C-14.375 79.5275 -14.375 78.8675 -14.375 78.1875 C-15.426875 78.0946875 -15.426875 78.0946875 -16.5 78 C-20.40219119 76.89720684 -22.31848424 74.84533979 -25.375 72.1875 C-26.365 71.8575 -27.355 71.5275 -28.375 71.1875 C-29.76171875 69.4453125 -29.76171875 69.4453125 -31.0625 67.3125 C-31.49949219 66.61382812 -31.93648437 65.91515625 -32.38671875 65.1953125 C-33.375 63.1875 -33.375 63.1875 -33.375 60.1875 C-34.035 60.1875 -34.695 60.1875 -35.375 60.1875 C-35.50777344 59.47722656 -35.64054688 58.76695313 -35.77734375 58.03515625 C-36.04224609 56.65650391 -36.04224609 56.65650391 -36.3125 55.25 C-36.48652344 54.33347656 -36.66054688 53.41695312 -36.83984375 52.47265625 C-37.15214988 50.23460156 -37.15214988 50.23460156 -38.375 49.1875 C-38.46185603 47.62577255 -38.48202219 46.06020656 -38.47265625 44.49609375 C-38.46943359 43.55185547 -38.46621094 42.60761719 -38.46289062 41.63476562 C-38.45451172 40.64154297 -38.44613281 39.64832031 -38.4375 38.625 C-38.43298828 37.62791016 -38.42847656 36.63082031 -38.42382812 35.60351562 C-38.41200007 33.13145151 -38.39551849 30.65950482 -38.375 28.1875 C-37.715 28.1875 -37.055 28.1875 -36.375 28.1875 C-36.46974609 27.13175781 -36.46974609 27.13175781 -36.56640625 26.0546875 C-36.04051894 18.17711024 -29.40316772 10.64504777 -23.953125 5.296875 C-22.375 4.1875 -22.375 4.1875 -19.375 4.1875 C-19.375 3.5275 -19.375 2.8675 -19.375 2.1875 C-12.923245 0.37193075 -6.66001274 -0.00535478 0 0 Z " fill="#3A7BC8" transform="translate(671.375,63.8125)"/>
<path d="M0 0 C0.68191406 -0.00386719 1.36382812 -0.00773437 2.06640625 -0.01171875 C12.52720763 0.00820659 18.87697419 2.57820285 27.125 9.125 C32.12512889 14.20205395 35.125 21.00436013 35.125 28.125 C35.785 28.125 36.445 28.125 37.125 28.125 C37.125 33.405 37.125 38.685 37.125 44.125 C19.305 44.125 1.485 44.125 -16.875 44.125 C-16.05249144 54.65231465 -16.05249144 54.65231465 -11.25 58.6875 C-10.61835938 59.12191406 -9.98671875 59.55632812 -9.3359375 60.00390625 C-8.85382813 60.37386719 -8.37171875 60.74382812 -7.875 61.125 C-7.875 61.785 -7.875 62.445 -7.875 63.125 C-1.935 63.785 4.005 64.445 10.125 65.125 C10.125 64.465 10.125 63.805 10.125 63.125 C10.90875 63.063125 11.6925 63.00125 12.5 62.9375 C13.36625 62.669375 14.2325 62.40125 15.125 62.125 C16.49966625 59.64863988 16.49966625 59.64863988 17.125 57.125 C17.785 57.125 18.445 57.125 19.125 57.125 C19.3725 56.155625 19.62 55.18625 19.875 54.1875 C20.2875 53.176875 20.7 52.16625 21.125 51.125 C23.25 50.25 23.25 50.25 25.125 50.125 C25.125 50.785 25.125 51.445 25.125 52.125 C26.1459375 52.2178125 26.1459375 52.2178125 27.1875 52.3125 C31.15678937 53.41038855 33.91139555 55.61523975 37.125 58.125 C35.86636239 61.610458 34.38420421 64.20686123 32.125 67.125 C31.85816406 67.76179688 31.59132813 68.39859375 31.31640625 69.0546875 C27.59206994 75.52648503 17.93483178 78.18928095 11.125 80.125 C10.135 80.455 9.145 80.785 8.125 81.125 C-1.58618404 82.04114944 -10.27980976 80.99149527 -18.875 76.125 C-19.205 75.135 -19.535 74.145 -19.875 73.125 C-21.19907669 72.44013275 -22.53409241 71.77629797 -23.875 71.125 C-26.125 69.125 -26.125 69.125 -27.875 67.125 C-27.875 66.465 -27.875 65.805 -27.875 65.125 C-28.865 64.795 -29.855 64.465 -30.875 64.125 C-31.205 61.815 -31.535 59.505 -31.875 57.125 C-32.535 57.125 -33.195 57.125 -33.875 57.125 C-36.65785496 43.64412067 -37.06160866 27.23394335 -29.875 15.125 C-27.375 12.0625 -27.375 12.0625 -24.875 10.125 C-21.3532368 7.55140462 -21.3532368 7.55140462 -18.875 4.125 C-12.55774555 0.53565088 -7.16312327 -0.04016705 0 0 Z " fill="#3779C7" transform="translate(148.875,63.875)"/>
<path d="M0 0 C5.44223904 4.76322598 8.65007997 9.63618951 9.24050903 16.99935913 C9.23606781 18.05192902 9.23162659 19.1044989 9.22705078 20.18896484 C9.22689972 21.38975677 9.22674866 22.59054871 9.22659302 23.82772827 C9.21627045 25.10918732 9.20594788 26.39064636 9.1953125 27.7109375 C9.1915779 29.04757474 9.18873304 30.38421474 9.18673706 31.72085571 C9.17913577 35.22255132 9.15951788 38.7240785 9.1373291 42.22570801 C9.11679474 45.80539675 9.10771918 49.38511296 9.09765625 52.96484375 C9.07626827 59.97663826 9.0411151 66.98829368 9 74 C3.39 74 -2.22 74 -8 74 C-8.029729 71.84416382 -8.029729 71.84416382 -8.06005859 69.64477539 C-8.13646594 64.28278893 -8.22512815 58.92106145 -8.31738281 53.55932617 C-8.35552791 51.24427424 -8.39040532 48.92916597 -8.421875 46.61401367 C-8.46784087 43.27502381 -8.52578247 39.93641706 -8.5859375 36.59765625 C-8.59748871 35.57229263 -8.60903992 34.54692902 -8.62094116 33.49049377 C-8.794409 24.58012341 -8.794409 24.58012341 -11 16 C-16.15395326 11.40625905 -20.89733207 11.6283746 -27.62109375 11.859375 C-28.40613281 11.90578125 -29.19117188 11.9521875 -30 12 C-30 12.66 -30 13.32 -30 14 C-30.804375 14.20625 -31.60875 14.4125 -32.4375 14.625 C-33.283125 15.07875 -34.12875 15.5325 -35 16 C-35.82888749 18.97314468 -35.82888749 18.97314468 -36 22 C-36.33 22.66 -36.66 23.32 -37 24 C-37.11856636 25.6027098 -37.17706124 27.21005353 -37.20532227 28.81689453 C-37.22526749 29.81778107 -37.24521271 30.8186676 -37.26576233 31.84988403 C-37.29083107 33.47493362 -37.29083107 33.47493362 -37.31640625 35.1328125 C-37.33718735 36.23978485 -37.35796844 37.3467572 -37.37937927 38.48727417 C-37.44490991 42.03311799 -37.50377614 45.57903754 -37.5625 49.125 C-37.60568187 51.5247475 -37.64929605 53.92448727 -37.69335938 56.32421875 C-37.80059492 62.21606767 -37.90185248 68.10799297 -38 74 C-43.61 74 -49.22 74 -55 74 C-55 48.92 -55 23.84 -55 -2 C-49.06 -2 -43.12 -2 -37 -2 C-36.67 -0.68 -36.34 0.64 -36 2 C-35.32904297 1.47599609 -35.32904297 1.47599609 -34.64453125 0.94140625 C-34.03996094 0.48636719 -33.43539063 0.03132813 -32.8125 -0.4375 C-32.22082031 -0.88996094 -31.62914062 -1.34242187 -31.01953125 -1.80859375 C-22.43867913 -6.87079858 -8.1361321 -5.19204152 0 0 Z " fill="#3677C7" transform="translate(477,68)"/>
<path d="M0 0 C35.97 0 71.94 0 109 0 C109 8.25 109 16.5 109 25 C73.03 25 37.06 25 0 25 C0 16.75 0 8.5 0 0 Z " fill="#E68B4D" transform="translate(597,161)"/>
<path d="M0 0 C0.78697266 -0.02900391 1.57394531 -0.05800781 2.38476562 -0.08789062 C9.78283733 -0.16589138 13.15912892 1.52945597 20.8125 4.3125 C20.8125 12.2325 20.8125 20.1525 20.8125 28.3125 C18.5025 26.3325 16.1925 24.3525 13.8125 22.3125 C11.30659643 20.29385546 9.89262722 19.33920907 6.8125 18.3125 C6.8125 17.6525 6.8125 16.9925 6.8125 16.3125 C1.5325 16.3125 -3.7475 16.3125 -9.1875 16.3125 C-9.1875 16.9725 -9.1875 17.6325 -9.1875 18.3125 C-10.074375 18.704375 -10.96125 19.09625 -11.875 19.5 C-16.61676692 22.09455171 -19.45337909 24.49467679 -21.5 29.5625 C-22.30042939 33.92847851 -22.40318291 37.89471899 -22.1875 42.3125 C-22.18105469 43.05757812 -22.17460937 43.80265625 -22.16796875 44.5703125 C-21.86584221 50.99329899 -19.49344044 55.56416842 -15.1875 60.3125 C-8.97864021 64.58109111 -1.48593449 63.97287539 5.8125 63.3125 C8.48433767 62.58140014 10.36861607 61.67021329 12.8125 60.3125 C13.8025 59.9825 14.7925 59.6525 15.8125 59.3125 C16.49382451 57.65177151 17.15992127 55.984733 17.8125 54.3125 C18.8025 53.6525 19.7925 52.9925 20.8125 52.3125 C20.87036668 56.10410297 20.90605054 59.89559311 20.9375 63.6875 C20.95425781 64.76773438 20.97101563 65.84796875 20.98828125 66.9609375 C20.99794922 68.5078125 20.99794922 68.5078125 21.0078125 70.0859375 C21.02352295 71.51558838 21.02352295 71.51558838 21.03955078 72.97412109 C20.8125 75.3125 20.8125 75.3125 18.8125 77.3125 C8.77543334 81.53053108 -2.3640341 83.43186149 -12.9375 80.0625 C-13.63488281 79.77503906 -14.33226562 79.48757812 -15.05078125 79.19140625 C-17.19759275 78.24698155 -17.19759275 78.24698155 -19.60546875 77.71484375 C-28.47502091 75.19836616 -32.81307755 67.97239293 -37.1875 60.3125 C-37.1875 59.3225 -37.1875 58.3325 -37.1875 57.3125 C-37.8475 57.3125 -38.5075 57.3125 -39.1875 57.3125 C-42.68159003 48.66046755 -42.49409554 40.46494471 -42.1875 31.3125 C-41.5275 31.3125 -40.8675 31.3125 -40.1875 31.3125 C-40.14625 30.178125 -40.105 29.04375 -40.0625 27.875 C-38.8723377 18.86150418 -32.11582832 12.949723 -25.65234375 7.16015625 C-22.20080703 4.57287119 -19.51533756 3.3125 -15.1875 3.3125 C-15.1875 2.6525 -15.1875 1.9925 -15.1875 1.3125 C-10.09867672 0.30456882 -5.16791862 0.06196545 0 0 Z " fill="#3B7BC9" transform="translate(241.1875,63.6875)"/>
<path d="M0 0 C1.58206422 0.00574487 3.16410406 0.01876032 4.74609375 0.03515625 C7.53046875 0.05578125 10.31484375 0.07640625 13.18359375 0.09765625 C13.18359375 9.99765625 13.18359375 19.89765625 13.18359375 30.09765625 C17.47359375 30.09765625 21.76359375 30.09765625 26.18359375 30.09765625 C26.18359375 35.37765625 26.18359375 40.65765625 26.18359375 46.09765625 C21.89359375 46.09765625 17.60359375 46.09765625 13.18359375 46.09765625 C13.18359375 65.89765625 13.18359375 85.69765625 13.18359375 106.09765625 C7.57359375 106.09765625 1.96359375 106.09765625 -3.81640625 106.09765625 C-3.81640625 86.29765625 -3.81640625 66.49765625 -3.81640625 46.09765625 C-7.77640625 46.09765625 -11.73640625 46.09765625 -15.81640625 46.09765625 C-15.81640625 40.81765625 -15.81640625 35.53765625 -15.81640625 30.09765625 C-12.18640625 30.09765625 -8.55640625 30.09765625 -4.81640625 30.09765625 C-4.82426147 28.78776733 -4.82426147 28.78776733 -4.83227539 27.45141602 C-4.84928376 24.22176352 -4.86183994 20.9921338 -4.87133789 17.76245117 C-4.87637705 16.36270397 -4.88320841 14.96296205 -4.8918457 13.56323242 C-4.90392945 11.55519848 -4.90910432 9.54712668 -4.9140625 7.5390625 C-4.92191772 5.72450562 -4.92191772 5.72450562 -4.92993164 3.87329102 C-4.75486924 -0.40689047 -4.47051239 0.11439387 0 0 Z " fill="#3879C8" transform="translate(289.81640625,35.90234375)"/>
<path d="M0 0 C6.27 0 12.54 0 19 0 C19.02311972 14.84648004 19.0409796 29.69295627 19.05181217 44.53945065 C19.05697494 51.43247527 19.06401728 58.32548853 19.07543945 65.21850586 C19.086447 71.86446165 19.09227622 78.51040869 19.09487724 85.15637398 C19.09673201 87.69822946 19.1003536 90.24008426 19.10573006 92.78193474 C19.11293667 96.32851462 19.1139911 99.8750449 19.11352539 103.42163086 C19.11712067 104.48401978 19.12071594 105.54640869 19.12442017 106.64099121 C19.1230455 107.60157944 19.12167084 108.56216766 19.12025452 109.55186462 C19.12117631 110.39161803 19.1220981 111.23137144 19.12304783 112.09657192 C19 114 19 114 18 115 C12.06 115 6.12 115 0 115 C0 77.05 0 39.1 0 0 Z " fill="#3274C6" transform="translate(597,28)"/>
<path d="M0 0 C4.85580547 3.18360756 8.38333591 8.51845469 10.26953125 13.96484375 C10.7991008 17.06503216 10.77614107 20.07968532 10.76953125 23.22265625 C10.77339844 25.06537109 10.77339844 25.06537109 10.77734375 26.9453125 C10.64453125 30.16015625 10.64453125 30.16015625 9.64453125 33.16015625 C8.98453125 33.16015625 8.32453125 33.16015625 7.64453125 33.16015625 C7.31453125 35.14015625 6.98453125 37.12015625 6.64453125 39.16015625 C5.98453125 39.16015625 5.32453125 39.16015625 4.64453125 39.16015625 C4.43828125 39.73765625 4.23203125 40.31515625 4.01953125 40.91015625 C2.01942947 44.18305007 0.05755635 45.39269682 -3.35546875 47.16015625 C-9.07056437 48.38414707 -14.66734939 48.49141823 -20.35546875 47.16015625 C-20.68546875 46.50015625 -21.01546875 45.84015625 -21.35546875 45.16015625 C-22.34546875 44.83015625 -23.33546875 44.50015625 -24.35546875 44.16015625 C-25.54296875 41.59765625 -25.54296875 41.59765625 -26.35546875 39.16015625 C-27.01546875 39.16015625 -27.67546875 39.16015625 -28.35546875 39.16015625 C-28.68546875 37.18015625 -29.01546875 35.20015625 -29.35546875 33.16015625 C-30.01546875 33.16015625 -30.67546875 33.16015625 -31.35546875 33.16015625 C-31.9334504 13.31611955 -31.9334504 13.31611955 -28.35546875 6.16015625 C-27.02417412 5.48942766 -25.69093198 4.82254601 -24.35546875 4.16015625 C-24.02546875 3.17015625 -23.69546875 2.18015625 -23.35546875 1.16015625 C-16.50380468 -1.89991026 -7.11395052 -2.53648319 0 0 Z " fill="#F8FAFD" transform="translate(550.35546875,81.83984375)"/>
<path d="M0 0 C4.27124923 1.6759386 7.63660688 4.25258264 10.8046875 7.49609375 C11.6796875 10.80859375 11.6796875 10.80859375 11.8046875 13.49609375 C12.4646875 13.49609375 13.1246875 13.49609375 13.8046875 13.49609375 C13.88618342 16.51747942 13.94542171 19.5366328 13.9921875 22.55859375 C14.01732422 23.40615234 14.04246094 24.25371094 14.06835938 25.12695312 C14.13315722 30.72116735 13.37935337 34.51570334 10.8046875 39.49609375 C10.1446875 39.49609375 9.4846875 39.49609375 8.8046875 39.49609375 C8.5984375 40.07359375 8.3921875 40.65109375 8.1796875 41.24609375 C6.23541749 44.4276265 4.28157207 46.24467333 0.8046875 47.49609375 C-5.80023262 48.18428111 -12.0294869 48.15436291 -18.1953125 45.49609375 C-20.3125 43.65625 -20.3125 43.65625 -22.0703125 41.55859375 C-22.66585938 40.86894531 -23.26140625 40.17929688 -23.875 39.46875 C-25.1953125 37.49609375 -25.1953125 37.49609375 -25.1953125 34.49609375 C-25.8553125 34.49609375 -26.5153125 34.49609375 -27.1953125 34.49609375 C-28.46667797 27.344663 -29.27612149 19.54772423 -27.1953125 12.49609375 C-26.5353125 12.49609375 -25.8753125 12.49609375 -25.1953125 12.49609375 C-25.1334375 11.95984375 -25.0715625 11.42359375 -25.0078125 10.87109375 C-21.0431756 -0.71784487 -10.69204776 -2.45422449 0 0 Z " fill="#F9FBFD" transform="translate(370.1953125,80.50390625)"/>
<path d="M0 0 C86.13 0 172.26 0 261 0 C261 0.66 261 1.32 261 2 C175.53 2 90.06 2 2 2 C2 6.62 2 11.24 2 16 C89.12 16 176.24 16 266 16 C266 16.33 266 16.66 266 17 C232.25758927 17.0228654 198.51518046 17.04049773 164.7727637 17.05106533 C160.79341472 17.05231611 156.81406576 17.05361042 152.8347168 17.05493164 C152.04246619 17.05519395 151.25021559 17.05545626 150.43395739 17.05572652 C137.58887579 17.06008341 124.74379863 17.06797106 111.89871968 17.0771528 C98.7284206 17.08648882 85.55812386 17.0920555 72.38782161 17.09408849 C64.25441714 17.09546383 56.12102524 17.09981499 47.98762464 17.10791647 C41.7615774 17.11380394 35.53553985 17.11445909 29.3094902 17.11310768 C26.7475559 17.11338422 24.18562114 17.11539207 21.62368965 17.11920547 C18.1426682 17.12413549 14.66170188 17.12300085 11.18067932 17.12025452 C10.15249086 17.12316736 9.12430241 17.1260802 8.06495672 17.12908131 C7.13986585 17.12709026 6.21477497 17.12509921 5.26165104 17.12304783 C4.45702366 17.12342755 3.65239628 17.12380727 2.82338625 17.1241985 C1 17 1 17 0 16 C0 10.72 0 5.44 0 0 Z " fill="#80B0DE" transform="translate(285,169)"/>
<path d="M0 0 C6.27 0 12.54 0 19 0 C19.02311972 14.84648004 19.0409796 29.69295627 19.05181217 44.53945065 C19.05697494 51.43247527 19.06401728 58.32548853 19.07543945 65.21850586 C19.086447 71.86446165 19.09227622 78.51040869 19.09487724 85.15637398 C19.09673201 87.69822946 19.1003536 90.24008426 19.10573006 92.78193474 C19.11293667 96.32851462 19.1139911 99.8750449 19.11352539 103.42163086 C19.11712067 104.48401978 19.12071594 105.54640869 19.12442017 106.64099121 C19.1230455 107.60157944 19.12167084 108.56216766 19.12025452 109.55186462 C19.12117631 110.39161803 19.1220981 111.23137144 19.12304783 112.09657192 C19 114 19 114 18 115 C12.06 115 6.12 115 0 115 C0 77.05 0 39.1 0 0 Z M2 2 C2 38.63 2 75.26 2 113 C6.62 113 11.24 113 16 113 C16 76.37 16 39.74 16 2 C11.38 2 6.76 2 2 2 Z " fill="#679ED7" transform="translate(597,28)"/>
<path d="M0 0 C27.39 0 54.78 0 83 0 C83 0.33 83 0.66 83 1 C55.94 1 28.88 1 1 1 C1 6.94 1 12.88 1 19 C22.45 19 43.9 19 66 19 C66 28.57 66 38.14 66 48 C44.88 48 23.76 48 2 48 C2 69.45 2 90.9 2 113 C7.28 113 12.56 113 18 113 C18 97.49 18 81.98 18 66 C23.28 66 28.56 66 34 66 C34 66.33 34 66.66 34 67 C29.05 67 24.1 67 19 67 C19.00785522 69.12779907 19.00785522 69.12779907 19.01586914 71.29858398 C19.03391309 76.54092787 19.04542978 81.783269 19.05493164 87.02563477 C19.05997325 89.29842591 19.06680637 91.5712138 19.07543945 93.84399414 C19.08751261 97.10303551 19.09322987 100.36203417 19.09765625 103.62109375 C19.10281754 104.64400009 19.10797882 105.66690643 19.11329651 106.72080994 C19.11340981 108.13215965 19.11340981 108.13215965 19.11352539 109.57202148 C19.115746 110.40475082 19.11796661 111.23748016 19.12025452 112.09544373 C19 114 19 114 18 115 C12.06 115 6.12 115 0 115 C0 92.56 0 70.12 0 47 C21.45 47 42.9 47 65 47 C65 38.09 65 29.18 65 20 C43.55 20 22.1 20 0 20 C0 13.4 0 6.8 0 0 Z " fill="#75A9DC" transform="translate(19,28)"/>
<path d="M0 0 C3.7728199 1.5749966 4.8377674 5.03595928 6.32714844 8.62744141 C6.65585938 9.35253906 6.98457031 10.07763672 7.32324219 10.82470703 C7.93555353 12.17947687 8.53527867 13.54006276 9.11767578 14.90795898 C9.94364001 16.86535597 9.94364001 16.86535597 11.05615234 18.8684082 C11.95214844 20.81494141 11.95214844 20.81494141 11.95214844 23.81494141 C9.07714844 23.50244141 9.07714844 23.50244141 5.95214844 22.81494141 C5.29214844 21.82494141 4.63214844 20.83494141 3.95214844 19.81494141 C1.17952589 19.43099473 -1.39108684 19.21151892 -4.17285156 19.12744141 C-4.92695312 19.09328125 -5.68105469 19.05912109 -6.45800781 19.02392578 C-8.32076357 18.94139863 -10.18428483 18.87649429 -12.04785156 18.81494141 C-12.37785156 20.46494141 -12.70785156 22.11494141 -13.04785156 23.81494141 C-15.02785156 23.81494141 -17.00785156 23.81494141 -19.04785156 23.81494141 C-19.04785156 22.49494141 -19.04785156 21.17494141 -19.04785156 19.81494141 C-18.38785156 19.81494141 -17.72785156 19.81494141 -17.04785156 19.81494141 C-16.92410156 19.23744141 -16.80035156 18.65994141 -16.67285156 18.06494141 C-16.03368589 15.763945 -15.2547952 13.87384526 -14.04785156 11.81494141 C-13.38785156 11.48494141 -12.72785156 11.15494141 -12.04785156 10.81494141 C-11.20719524 8.85194287 -10.58267809 6.8542327 -9.92675781 4.82275391 C-7.77407881 -0.09492168 -5.47013808 -0.92504166 0 0 Z " fill="#7A7B7D" transform="translate(126.0478515625,162.18505859375)"/>
<path d="M0 0 C0 0.66 0 1.32 0 2 C0.99 2.33 1.98 2.66 3 3 C5.73213008 5.4009628 7.68082385 7.59212827 9 11 C9 11.99 9 12.98 9 14 C-2.22 14 -13.44 14 -25 14 C-23.82329419 8.11647095 -22.81378351 5.49133311 -18.1875 1.6875 C-12.68332327 -1.27903681 -6.04611791 -0.30188661 0 0 Z " fill="#F1F6FB" transform="translate(159,80)"/>
<path d="M0 0 C0.89203125 0.00902344 1.7840625 0.01804687 2.703125 0.02734375 C3.37859375 0.03894531 4.0540625 0.05054687 4.75 0.0625 C4.75 0.7225 4.75 1.3825 4.75 2.0625 C5.5853125 2.18625 5.5853125 2.18625 6.4375 2.3125 C9.63294629 3.34886096 11.40216165 4.65120656 13.75 7.0625 C14.245 10.5275 14.245 10.5275 14.75 14.0625 C3.53 14.0625 -7.69 14.0625 -19.25 14.0625 C-15.21363636 3.97159091 -15.21363636 3.97159091 -9.25 1.0625 C-6.11030059 0.07841511 -3.28109778 -0.04317234 0 0 Z " fill="#F2F7FB" transform="translate(672.25,79.9375)"/>
<path d="M0 0 C7.92 0 15.84 0 24 0 C24 1.32 24 2.64 24 4 C18.06 4 12.12 4 6 4 C6 5.65 6 7.3 6 9 C9.63 9 13.26 9 17 9 C16.67 10.65 16.34 12.3 16 14 C12.7 14 9.4 14 6 14 C6 15.65 6 17.3 6 19 C12.27 19 18.54 19 25 19 C25 20.65 25 22.3 25 24 C16.75 24 8.5 24 0 24 C0 16.08 0 8.16 0 0 Z " fill="#919294" transform="translate(66,162)"/>
<path d="M0 0 C1.65 0 3.3 0 5 0 C5.33 2.64 5.66 5.28 6 8 C11.61 8.33 17.22 8.66 23 9 C23 6.03 23 3.06 23 0 C24.65 0 26.3 0 28 0 C28 7.59 28 15.18 28 23 C26.35 23 24.7 23 23 23 C23 19.7 23 16.4 23 13 C14.585 13.495 14.585 13.495 6 14 C5.67 16.97 5.34 19.94 5 23 C3.35 23.33 1.7 23.66 0 24 C0 16.08 0 8.16 0 0 Z " fill="#7A7B7E" transform="translate(234,162)"/>
<path d="M0 0 C1.65 0 3.3 0 5 0 C5 2.97 5 5.94 5 9 C13.415 8.505 13.415 8.505 22 8 C22.33 5.69 22.66 3.38 23 1 C24.32 1 25.64 1 27 1 C27 8.26 27 15.52 27 23 C25.68 23 24.36 23 23 23 C23 19.7 23 16.4 23 13 C17.06 13 11.12 13 5 13 C5 16.3 5 19.6 5 23 C3.35 23 1.7 23 0 23 C0 15.41 0 7.82 0 0 Z " fill="#6F7073" transform="translate(20,162)"/>
<path d="M0 0 C1.98 0 3.96 0 6 0 C6 6.27 6 12.54 6 19 C11.94 19 17.88 19 24 19 C24 20.65 24 22.3 24 24 C16.08 24 8.16 24 0 24 C0 16.08 0 8.16 0 0 Z " fill="#7E7F82" transform="translate(157,162)"/>
<path d="M0 0 C5.94 0 11.88 0 18 0 C18 25.74 18 51.48 18 78 C12.06 78 6.12 78 0 78 C0 75.36 0 72.72 0 70 C0.33 70 0.66 70 1 70 C1 71.98 1 73.96 1 76 C5.95 76 10.9 76 16 76 C16 51.58 16 27.16 16 2 C11.05 2 6.1 2 1 2 C1 4.31 1 6.62 1 9 C0.67 9 0.34 9 0 9 C0 6.03 0 3.06 0 0 Z " fill="#619BD6" transform="translate(384,65)"/>
<path d="M0 0 C8.91 0 17.82 0 27 0 C27 1.32 27 2.64 27 4 C23.7 4 20.4 4 17 4 C17 10.6 17 17.2 17 24 C15.02 24 13.04 24 11 24 C11 17.4 11 10.8 11 4 C7.37 4 3.74 4 0 4 C0 2.68 0 1.36 0 0 Z " fill="#78797B" transform="translate(190,162)"/>
<path d="M0 0 C0.99 0 1.98 0 3 0 C3 2.97 3 5.94 3 9 C6.3 9 9.6 9 13 9 C13 9.66 13 10.32 13 11 C9.7 11 6.4 11 3 11 C3.33 12.98 3.66 14.96 4 17 C9.94 17.33 15.88 17.66 22 18 C22 18.99 22 19.98 22 21 C14.74 21 7.48 21 0 21 C0 14.07 0 7.14 0 0 Z " fill="#68696C" transform="translate(68,164)"/>
<path d="M0 0 C1.98 0 3.96 0 6 0 C6 0.33 6 0.66 6 1 C4.35 1 2.7 1 1 1 C1 8.59 1 16.18 1 24 C2.65 24 4.3 24 6 24 C6 20.7 6 17.4 6 14 C11.94 14 17.88 14 24 14 C24 17.3 24 20.6 24 24 C25.32 24 26.64 24 28 24 C28 16.74 28 9.48 28 2 C26.68 2 25.36 2 24 2 C24 4.31 24 6.62 24 9 C23.67 9 23.34 9 23 9 C23 6.36 23 3.72 23 1 C24.98 1 26.96 1 29 1 C29 8.92 29 16.84 29 25 C26.69 25 24.38 25 22 25 C22 22.03 22 19.06 22 16 C17.05 16 12.1 16 7 16 C7 18.97 7 21.94 7 25 C4.69 25 2.38 25 0 25 C0 16.75 0 8.5 0 0 Z " fill="#B7B8B9" transform="translate(19,161)"/>
<path d="M0 0 C17.82 0 35.64 0 54 0 C54 0.66 54 1.32 54 2 C36.84 2 19.68 2 2 2 C2.22521971 9.36085638 2.22521971 9.36085638 4.5625 12 C5.036875 12.33 5.51125 12.66 6 13 C5.67 13.66 5.34 14.32 5 15 C4.67 14.01 4.34 13.02 4 12 C3.01 11.67 2.02 11.34 1 11 C0.67 7.37 0.34 3.74 0 0 Z " fill="#C3DBEF" transform="translate(132,108)"/>
<path d="M0 0 C0.66 0 1.32 0 2 0 C2 22.44 2 44.88 2 68 C-6.58 68 -15.16 68 -24 68 C-24.495 68.99 -24.495 68.99 -25 70 C-25.33 68.68 -25.66 67.36 -26 66 C-17.09 66 -8.18 66 1 66 C0.67 44.22 0.34 22.44 0 0 Z " fill="#CBE0F1" transform="translate(102,28)"/>
<path d="M0 0 C7.26 0 14.52 0 22 0 C22 0.66 22 1.32 22 2 C16.39 2 10.78 2 5 2 C5 3.98 5 5.96 5 8 C8.63 8 12.26 8 16 8 C15.67 9.65 15.34 11.3 15 13 C11.7 13 8.4 13 5 13 C5 14.65 5 16.3 5 18 C4.67 18 4.34 18 4 18 C4 16.02 4 14.04 4 12 C7.3 12 10.6 12 14 12 C14 11.34 14 10.68 14 10 C10.7 10 7.4 10 4 10 C4 7.03 4 4.06 4 1 C3.01 1 2.02 1 1 1 C1 7.93 1 14.86 1 22 C0.67 22 0.34 22 0 22 C0 14.74 0 7.48 0 0 Z " fill="#727376" transform="translate(67,163)"/>
<path d="M0 0 C1.32 0 2.64 0 4 0 C4 3.3 4 6.6 4 10 C9.61 10 15.22 10 21 10 C21 10.33 21 10.66 21 11 C13.08 11.495 13.08 11.495 5 12 C4.67 15.63 4.34 19.26 4 23 C2.68 23 1.36 23 0 23 C0 15.41 0 7.82 0 0 Z " fill="#6A6B6E" transform="translate(234,163)"/>
<path d="M0 0 C0.68191406 -0.00386719 1.36382812 -0.00773437 2.06640625 -0.01171875 C6.493548 -0.0032861 10.76893087 0.2448735 15.125 1.125 C15.62 2.115 15.62 2.115 16.125 3.125 C15.45855469 3.0528125 14.79210937 2.980625 14.10546875 2.90625 C-2.14729683 0.93669794 -2.14729683 0.93669794 -16.96484375 6.63671875 C-19.02180056 8.39362044 -20.95652644 10.21817709 -22.875 12.125 C-23.55304688 12.78886719 -24.23109375 13.45273438 -24.9296875 14.13671875 C-26.59427745 15.78459595 -28.24191421 17.44598368 -29.875 19.125 C-30.205 18.465 -30.535 17.805 -30.875 17.125 C-28.94309861 12.48843665 -25.61097951 10.22927882 -21.6171875 7.45703125 C-19.74240273 6.22556385 -19.74240273 6.22556385 -18.875 4.125 C-12.55774555 0.53565088 -7.16312327 -0.04016705 0 0 Z " fill="#6BA2D9" transform="translate(148.875,63.875)"/>
<path d="M0 0 C0.78487793 -0.00064453 1.56975586 -0.00128906 2.37841797 -0.00195312 C5.95487744 0.03189592 9.1841229 0.22583864 12.625 1.1875 C12.625 1.8475 12.625 2.5075 12.625 3.1875 C15.1 3.6825 15.1 3.6825 17.625 4.1875 C16.635 4.5175 15.645 4.8475 14.625 5.1875 C14.06039062 4.89230469 13.49578125 4.59710938 12.9140625 4.29296875 C9.70159132 2.74155349 6.5055408 2.67566604 3 2.5 C2.29157959 2.46092529 1.58315918 2.42185059 0.85327148 2.3815918 C-7.32502011 1.97605818 -7.32502011 1.97605818 -15.375 3.1875 C-15.705 3.8475 -16.035 4.5075 -16.375 5.1875 C-18.22265625 5.8203125 -18.22265625 5.8203125 -20.4375 6.3125 C-21.17097656 6.48007813 -21.90445313 6.64765625 -22.66015625 6.8203125 C-23.22605469 6.94148438 -23.79195312 7.06265625 -24.375 7.1875 C-23.715 6.1975 -23.055 5.2075 -22.375 4.1875 C-21.385 4.1875 -20.395 4.1875 -19.375 4.1875 C-19.375 3.5275 -19.375 2.8675 -19.375 2.1875 C-12.923245 0.37193075 -6.66001274 -0.00535478 0 0 Z " fill="#629CD6" transform="translate(671.375,63.8125)"/>
<path d="M0 0 C0.33 0 0.66 0 1 0 C1 1.65 1 3.3 1 5 C4.63 5 8.26 5 12 5 C11.67 6.65 11.34 8.3 11 10 C7.7 10 4.4 10 1 10 C1 11.65 1 13.3 1 15 C0.67 15 0.34 15 0 15 C0 13.02 0 11.04 0 9 C3.3 9 6.6 9 10 9 C10 8.34 10 7.68 10 7 C6.7 7 3.4 7 0 7 C0 4.69 0 2.38 0 0 Z " fill="#A0A0A2" transform="translate(71,166)"/>
<path d="M0 0 C0.66 1.98 1.32 3.96 2 6 C1.34 6 0.68 6 0 6 C-0.33 4.68 -0.66 3.36 -1 2 C-3.91634129 1.7497843 -3.91634129 1.7497843 -7 2 C-7.99 3.485 -7.99 3.485 -9 5 C-9.66 5 -10.32 5 -11 5 C-11.33 5.99 -11.66 6.98 -12 8 C-12.33 7.34 -12.66 6.68 -13 6 C-9.70746707 -1.68257683 -7.61776336 -1.10580436 0 0 Z " fill="#9B9C9D" transform="translate(128,163)"/>
<path d="M0 0 C2.475 0.495 2.475 0.495 5 1 C5 8.92 5 16.84 5 25 C3.35 23.35 1.7 21.7 0 20 C0.99 20 1.98 20 3 20 C3.495 11.09 3.495 11.09 4 2 C2.68 2 1.36 2 0 2 C0 1.34 0 0.68 0 0 Z " fill="#629CD7" transform="translate(257,67)"/>
<path d="M0 0 C5.94 0 11.88 0 18 0 C18.33 1.32 18.66 2.64 19 4 C20.32 3.34 21.64 2.68 23 2 C21.1875 4.5 21.1875 4.5 19 7 C18.01 7 17.02 7 16 7 C16 5.02 16 3.04 16 1 C10.72 1 5.44 1 0 1 C0 0.67 0 0.34 0 0 Z " fill="#69A1D9" transform="translate(422,66)"/>
<path d="M0 0 C0.99 0 1.98 0 3 0 C3.33 2.64 3.66 5.28 4 8 C2.02 8 0.04 8 -2 8 C-1.47731534 5.23723823 -0.89130413 2.6739124 0 0 Z " fill="#EDEDED" transform="translate(121,168)"/>
<path d="M0 0 C0.66 0.33 1.32 0.66 2 1 C-2.29 5.29 -6.58 9.58 -11 14 C-11.33 13.34 -11.66 12.68 -12 12 C-9.77516624 6.4379156 -4.6778104 3.40293545 0 0 Z " fill="#5591D2" transform="translate(130,69)"/>
<path d="M0 0 C4.875 1.75 4.875 1.75 6 4 C5.113125 3.896875 4.22625 3.79375 3.3125 3.6875 C-1.00684858 4.09498572 -2.25642975 5.7722703 -5 9 C-5.66 8.67 -6.32 8.34 -7 8 C-5.50902342 4.2047869 -3.24299151 2.38957269 0 0 Z " fill="#6DA3D9" transform="translate(692,114)"/>
<path d="M0 0 C0.33 0 0.66 0 1 0 C1 7.59 1 15.18 1 23 C0.67 23 0.34 23 0 23 C-0.33 17.06 -0.66 11.12 -1 5 C-1.66 5 -2.32 5 -3 5 C-1.125 1.125 -1.125 1.125 0 0 Z " fill="#5C99D6" transform="translate(261,116)"/>
<path d="M0 0 C0.66 0.33 1.32 0.66 2 1 C1.43410156 1.55429688 0.86820313 2.10859375 0.28515625 2.6796875 C-0.44832031 3.40414062 -1.18179688 4.12859375 -1.9375 4.875 C-2.66839844 5.59429687 -3.39929688 6.31359375 -4.15234375 7.0546875 C-6.05667999 8.87027192 -6.05667999 8.87027192 -7 11 C-7.66 10.67 -8.32 10.34 -9 10 C-8.75 8.125 -8.75 8.125 -8 6 C-6.68352881 5.30062468 -5.34977849 4.63270867 -4 4 C-3.67 3.01 -3.34 2.02 -3 1 C-2.01 0.67 -1.02 0.34 0 0 Z " fill="#D2E3F3" transform="translate(530,82)"/>
<path d="M0 0 C0.33 0.66 0.66 1.32 1 2 C-0.65 2.33 -2.3 2.66 -4 3 C-4 3.66 -4 4.32 -4 5 C-7.96 5 -11.92 5 -16 5 C-16 4.67 -16 4.34 -16 4 C-13.03 4 -10.06 4 -7 4 C-7 3.34 -7 2.68 -7 2 C-4.69 1.34 -2.38 0.68 0 0 Z " fill="#A7C9E8" transform="translate(163,124)"/>
<path d="M0 0 C2 1 2 1 3.125 4.0625 C3.41375 5.031875 3.7025 6.00125 4 7 C0.7 7 -2.6 7 -6 7 C-5.67 5.68 -5.34 4.36 -5 3 C-5 3.99 -5 4.98 -5 6 C-3.02 6 -1.04 6 1 6 C0.67 4.02 0.34 2.04 0 0 Z " fill="#B0B1B2" transform="translate(124,170)"/>
<path d="M0 0 C-0.99 0.33 -1.98 0.66 -3 1 C-3.33 1.66 -3.66 2.32 -4 3 C-5.84765625 3.6328125 -5.84765625 3.6328125 -8.0625 4.125 C-8.79597656 4.29257813 -9.52945313 4.46015625 -10.28515625 4.6328125 C-10.85105469 4.75398438 -11.41695312 4.87515625 -12 5 C-11.34 4.01 -10.68 3.02 -10 2 C-9.01 2 -8.02 2 -7 2 C-7 1.34 -7 0.68 -7 0 C-3.86650268 -1.04449911 -3.01031744 -0.93423645 0 0 Z " fill="#8EB9E2" transform="translate(659,66)"/>
<path d="M0 0 C0 3 0 3 -1.53125 4.82421875 C-2.1809375 5.43910156 -2.830625 6.05398437 -3.5 6.6875 C-4.1496875 7.31011719 -4.799375 7.93273437 -5.46875 8.57421875 C-5.9740625 9.04472656 -6.479375 9.51523438 -7 10 C-7 5.69032084 -4.83274712 4.10253255 -2 1 C-1.34 0.67 -0.68 0.34 0 0 Z " fill="#C5DBF0" transform="translate(353,82)"/>
</svg>
